<svg xmlns="http://www.w3.org/2000/svg" viewBox="0 0 81.3 81.4"><path d="M58.3 69.3c5.5-3.7 5.9-3.3 2.9-1.1-2.9 2.2 2.3-.9-.5 1.1-3.3 3.7-4.3 3.7-4.5 3.7-1.4.2 1.6-.2-.5.8S38.9 81.4 15.1 64c6.7 11.2 18.4 16.1 28.4 16.3 0 0-3.1 0-1.4.3 1.7.3-.8 2.6-15.3-2.8.6 1.4.8 1.9 2.5 2.8 0 0-19.1-6.5-25.7-25.7.2 2.3.3 5 .3 5s-9.6-17.1 1.9-38.1C17.1.6 42.4-.1 45.8 0c3.4.2 22.5 4.5 26.8 9 4.3 4.5-2.2 1.6-2.2 1.6s-2.2 1.2 1.4 3.1c3.6 1.9 7.4 8.1 4.5 5.7-2.9-2.3 1.4 2.8 1.9 3.1.5.3-6.5-3.1-4.7-1.1 1.9 2 9.9 10.8 7.3 13.5-2.6 2.6-3.6-4.6-4-5.1-.5-.5.8 10.7 0 12.6-.8 1.9-.6-4.2-2.2-6-1.6-1.9-2-1.7-3.1-1.7s-4-2.9-4.3-4.7c-.3-1.7-1.2-2.2-2.6-3.6-1.4-1.4-3.6-2.8-6.2-2.6-2.6.2-1.2-3.1-5.7-3.1s-7.1-.8-11 .9c-3.9 1.7-11 3.7-11.6 3.9-.6.2 6.5-3.9 7.6-4.5 1.1-.6-16.9 4-19.8 11.2-2.9 7.1-5.6 19.4 4.5 30.5 9.9 11.1 27.8 12 35.9 6.6z" fill-rule="evenodd" clip-rule="evenodd"/></svg>