<svg xmlns="http://www.w3.org/2000/svg" viewBox="0 0 93.2 93.8"><path d="M2.1 54.5c.9 4.9 5.5 14.8 3.5 9.1-3.4-9.7-4-13-4.2-23.2-.2 5.1-.2 8.9.7 14.1zM90.1 36.3c.1.2.1.4.2.6-.1-.2-.2-.4-.2-.6zM90.3 37c.1.4.3.9.4 1.3-.2-.5-.3-.9-.4-1.3zM3.9 44.6v.3c.1-.1.1-.2 0-.3zM1.3 40.2v.2-.2zM7.8 57.9c-1.1-4-1.8-7.9-2-11.6.1 4 .8 7.9 2 11.6zM50.1 91h-1.8H51c.4 0 .9-.1 1.3-.1-5.4-.1-2.6.4-8.2-.2l1.8.3h-.4.8c-.5 0 1.8.2 3.8 0zM87.9 65.3c-1.3 2-2.1 3.5-3 5 .1-.1 2.2-3 3-5zM59.8 88.8c-5 1.1-10.2 1.4-15.4.9 5.6.8 10.7.5 15.4-.9z"/><path d="M93.1 47.9c-.5-7.8-.6-.2-.7 4.3 0-1.2.2-4.5-.6-9.2.2 2.2.6 2.5.6 7.2-.2-5.8-1.3-11.4-3.3-16.3.4.8.7 1.6 1 2.4C85.9 24 76.7 14.9 62.9 11.5c6.7 2.6 12.6 5.9 17.4 10.3 7.5 8.9 11.1 17.1 11.2 26.5-.1-1.1-.2-2.2-.4-3.6-2-14.1 1.1 6.3-1.4 16-.4 1.5-1 3-1.7 4.5.3-.5.6-.9 1-1.4.8-1.9 2.3-3.2 3.3-9.6-.8 7.8-3.7 14.5-8.2 20.1 1.8-2.6 3.4-5.5 4.4-8.6v.1c.5-1-.5.3-2 2.6-.3.5-2.4 4-2.9 4.3.6-.8 1.1-1.6 1.5-2.4-5.8 8.3-15.7 15.8-25.3 18.5 2.8-.6 5.5-1.5 8-2.6-10.2 5.1-20.9 5.4-30.5 2.2 2.3.6 4.7 1 7.1 1.3-12.1-1.8-22.3-7.5-31.4-20.5-8.1-11.6-7.4-29.5-3-43.4 1.3-2.9 2.7-5.1 5-8.2.9-.7 1.8-1.4 2.9-2.1-.6 0-1.1 0-1.5.1 5.7-1.7 6.5-1.7 3.6-2.3 4.4-.4 6.9-3.4 4.6-1-3.4 3.4 1.9-.7 3.8-2.2.8-.3 2.7-1.1 3.1-1.8 1.4.6 2.2-1.4 2.3-3.2 2.6-5.5-1-5.9-6.8-4.3-.9.3-1.8.5-2.5 1-3 1.9-14.9 10.8-11.4 10.1-1.1 1-2.3 2.1-2.6 2.5.1-.1.2-.2.3-.2-.7.8-1.7 1.8-2.2 2.6-5.8 9.3-.3 4.4 2.7.3.2-.1.6-.1 1-.3.1 0 .1 0 .2-.1-3.6 3.7-8.2 12.4-10.3 17.2.5-2.4 1-4.7 1.4-7.3-5.8 10.3-3.6 21.3-.8 32.3-1.6-6.7-2.8-12-1-22.7 5.6-5.1 2.7-9.8 11.6-17.4-6 9-8.3 17.9-7.6 27.6-.3-6.7 1-13.6 4.1-20.5-4 11.8-4.6 24.5-.9 35.6-.5-1.2-.9-2.3-1.3-3.5.5 1.9 1.1 3.8 1.8 5.8-.3-.5-.5-.9-.8-1.4 1.8 3.6 3.2 7.3 5.7 10.8-.7-.9-1.4-1.8-2.2-2.7 5.7 8 9.3 10.4 12.7 13.4 8.6 5.3 17.1 8.4 25.8 8.3C23.5 93.8-3.3 65.7 7.9 27 4.9 37.1 4 41.1 5.4 51.7c1.8 14.2-1-3-1.4-6.8.6 9.8 2.9 18 6.4 24.6C5.7 62.4 3.8 53 3.8 44.6c.1-7.7 4.3-17.9-.1-7.8-5.8 6.9.6 36.2 20.6 49.1-3.5-2.1-6.6-4.5-9.8-8-1.9-2-8.1-11.4-7.7-10.4C18 97.4 67.6 104.7 86.1 74c4.9-8 7.7-15.7 7-26.1zM23 10.5c-.2.2-.5.4-.8.5.3-.2.5-.3.8-.5zm1.9-1.6zm56.8 66c-3.2 4.3-4.3 4.9-4.8 5.4.5-.7 3.8-4.1 4.8-5.4zm-36.2 16c-4.7-.3-9-1.4-13.2-3.3 3.8 1.6 7.7 2.6 11.8 3-3.7-.6-7.4-1.8-10.8-3.5 14.3 4.8 17.5 3.5 19 3.7h-.1 1.2c-1 .1-2.2.1-3.4.1 1.4 0 5-.3 6.4-.3-5.2.9-8.5.4-10.2.3-3.6.1-2.9.1-.7 0zm19.9-2.3c.1 0 .2-.1.4-.1l-.9.3c.2-.1.3-.1.5-.2zm13.7-7.2c-9.9 9.9-24.9 12.5-38 10.2 13.4 2.2 27.8-1.5 38-10.2zM3.3 45.9c0 3.1 1.1 10.6 3.1 16.9-2.2-4.7-3.2-9.5-3.1-16.9zm43.8 46.9c9.5.4 19-2.1 27-7.2-7.5 5.3-16.6 7.9-27 7.2z"/><path d="M91.3 40.9c0 .1.1.3.1.4 0-.2 0-.3-.1-.4zM91.4 41.3c.1.6.2 1.1.3 1.7 0-.6-.2-1.2-.3-1.7zM90.7 38.3c.2.9.5 1.7.7 2.6-.3-.9-.5-1.8-.7-2.6z"/></svg>